PathFileType	4	(X/Y/Z)	21_coords_data.trc
DataRate	CameraRate	NumFrames	NumMarkers	Units	OrigDataRate	OrigDataStartFrame	OrigNumFrames
30.0	30.0	6	21	m	30.0	20	59
Frame#	Time	THUMB_TIP	THUMB_IP	THUMB_MCP	THUMB_CMC	INDEX_TIP	INDEX_DIP	INDEX_PIP	INDEX_MCP	MIDDLE_TIP	MIDDLE_DIP	MIDDLE_PIP	MIDDLE_MCP	RING_TIP	RING_DIP	RING_PIP	RING_MCP	PINKY_TIP	PINKY_DIP	PINKY_PIP	PINKY_MCP	WRIST
X1	Y1	Z1	X2	Y2	Z2	X3	Y3	Z3	X4	Y4	Z4	X5	Y5	Z5	X6	Y6	Z6	X7	Y7	Z7	X8	Y8	Z8	X9	Y9	Z9	X10	Y10	Z10	X11	Y11	Z11	X12	Y12	Z12	X13	Y13	Z13	X14	Y14	Z14	X15	Y15	Z15	X16	Y16	Z16	X17	Y17	Z17	X18	Y18	Z18	X19	Y19	Z19	X20	Y20	Z20	X21	Y21	Z21
18	0.6333333333333304	0.47455434976560806	-0.02479106232508299	-0.17284642191004407	0.47801949189485415	-0.02614248575001754	-0.15017118332804313	0.47869558814499547	-0.029406777590009425	-0.11922433708090674	0.47942210317423795	-0.025941834259913144	-0.07475686195996567	0.5059211216152495	-0.010654116170614625	-0.09742150081590406	0.5238120300629956	-0.013431206009956731	-0.09787224124962868	0.5401047936847831	-0.0006436963791881523	-0.11212128627052587	0.5012487376979919	0.016360758480507887	-0.11595423840640184	0.5057880517891876	-0.01291424563984922	-0.08599530327740923	0.5230599840711462	-0.009166094507134126	-0.08204160648405712	0.5432676370482379	0.00656129127013394	-0.09595956782077697	0.5047100413856866	0.02901512713045684	-0.09825847905892326	0.511863620365778	-0.0006904333284663	-0.07204495121251642	0.5294392379981889	0.0030514766819560446	-0.07349263015247187	0.5458274735850568	0.01895382412820601	-0.08342847732561576	0.5092859716551963	0.035767882469272316	-0.07933862246104817	0.5177743652576644	-0.0019566678530043013	-0.05985619811120957	0.5345814992508869	0.0005522068567606064	-0.061911871875347524	0.5430050948006578	0.01894191868645767	-0.06753979829940304	0.5101736030280056	0.03246842789465654	-0.06121444078991878	0.46228308100186094	-0.023011742144276925	-0.051989820119430985
19	0.6666666666666637	0.4754940929396181	-0.024803617284709034	-0.1728502344754168	0.47869226389507447	-0.026177372998604898	-0.15013714358539898	0.47902509531209964	-0.02945079571401321	-0.1191856666097505	0.47947084166832843	-0.025983609555817133	-0.07471466560538453	0.5060248272239387	-0.010590519559083078	-0.09732705596374147	0.5238994506194601	-0.013481115549447531	-0.09770427379042779	0.5403509200812235	-0.0008311488402098499	-0.11189361231637207	0.5015578801451848	0.016299374664761057	-0.11580274405712365	0.5059066369602561	-0.01281006217526759	-0.08638985173843661	0.5230841735306627	-0.009224836886064347	-0.08190895930522624	0.543493160172299	0.006349749412019712	-0.09570443232738257	0.5050058147763778	0.028913740853583003	-0.0980999397058161	0.5118759485291499	-0.0006825093177907915	-0.07197206480284934	0.5294919373708555	0.0029000397984293436	-0.07332937057487554	0.5460413758290302	0.018713477360353004	-0.08313912379268029	0.5095394941616369	0.03564232240509746	-0.07917078986133641	0.5178320667603254	-0.0021987559442357973	-0.05968429331495084	0.5346677777981526	0.00018806114679181807	-0.0616494747378139	0.5431944706165499	0.018553666413127057	-0.06720033699352268	0.510423016202197	0.032286092159764856	-0.06100875321543586	0.46228308100186094	-0.023011742144276925	-0.051989820119430985
20	0.6999999999999968	0.4766777019977303	-0.024897765361564073	-0.17284877190379855	0.47953241727965534	-0.026278208608566667	-0.15009036736611292	0.47945452703778746	-0.029515293011410093	-0.1191333775628538	0.4795342275940579	-0.026008300417587837	-0.07466333539098036	0.5064355986902238	-0.010541110138230447	-0.09718931912420081	0.5243077770309718	-0.013448852767665831	-0.09755025423951247	0.5407376667368692	-0.000864211185229502	-0.11182244235113947	0.5019158279325825	0.016224504171329257	-0.11562727261233374	0.5061405100292274	-0.012314509241832639	-0.08672509734869827	0.5232974359912216	-0.009277848597381788	-0.08178358101612437	0.5438307070890969	0.006231330569243743	-0.0954678672451783	0.5053460998212846	0.028794178612634447	-0.09791752285630384	0.5119404611173185	-0.000627251058243461	-0.07188369785326376	0.5295935780529325	0.0028012882442143283	-0.07315357214193963	0.5463071254391542	0.01853320807561909	-0.08281504258834582	0.5098129741756541	0.03550934976841935	-0.07897989320628229	0.5179693185775489	-0.0023779541918157454	-0.059515035250464754	0.5348460619357974	-0.0001946134847030656	-0.061361263019858	0.543412671930418	0.01818382871874291	-0.06680718574926403	0.510681987984928	0.03209359230813902	-0.06079850400136222	0.46228308100186094	-0.023011742144276925	-0.051989820119430985
21	0.7333333333333302	0.47790384053550355	-0.024965613166334166	-0.17283863070646777	0.48038757303933677	-0.026352088598481926	-0.1500371228895392	0.47987323024799605	-0.0295676161503029	-0.1190820613638941	0.47959278549451745	-0.02603960239703662	-0.07461449487215754	0.507288871327996	-0.010677126659088154	-0.0969308636978834	0.5251861831993158	-0.013373878789792681	-0.0975741021655292	0.5412631786560638	-0.0006416814758763989	-0.11211477620916299	0.5022608557117823	0.016126996918129577	-0.11547131071194638	0.5064287512901682	-0.011703721160361558	-0.08622635735424955	0.5238146455408784	-0.009288127930923262	-0.08176591001648048	0.5443013388991725	0.006330612279387804	-0.09539528635900063	0.505678608049116	0.028666628590141907	-0.09774793551470173	0.5121585970326511	-0.0003390607307808269	-0.07194205749651428	0.5298820610217767	0.0027584639591423654	-0.07307526754830707	0.5466562816623189	0.018527910413761894	-0.0825689527873118	0.5100905057605057	0.03536470838013506	-0.078802375967716	0.518440556136558	-0.0025412899366739072	-0.05942806184512173	0.5353518421264443	-0.000532559334994076	-0.06115241898276902	0.5437302171615952	0.01797340590445884	-0.06645752042633457	0.5109741403281206	0.03187273739606644	-0.060564179644917226	0.4622830810018609	-0.023011742144276925	-0.051989820119430985
22	0.7666666666666633	0.4793026391424365	-0.025095266969538566	-0.17280956896406074	0.4813542669790215	-0.026469155609936013	-0.14996436699025584	0.48033741263273	-0.02963398017651009	-0.11901650934709684	0.4796640238603187	-0.026064360988484858	-0.07455647823584266	0.5086568726412837	-0.011133133646148319	-0.09652386340946684	0.5265912958037252	-0.013333702574590989	-0.09775429513112233	0.5419640628203898	-0.00022750112058000926	-0.11271809647630948	0.5026616342605386	0.01596510624287628	-0.11531707128779456	0.507095700203227	-0.011419293881599235	-0.08526494802728213	0.524761091174833	-0.00937488604527048	-0.08183648504526508	0.5449405427119328	0.006613042144260728	-0.09549611307344485	0.5060488869152273	0.028504954810965488	-0.09757726424141777	0.5127803029369706	-0.0001931177057913347	-0.072029027751777	0.5305365633629286	0.002723655608603326	-0.07312795864951283	0.547176500731577	0.018734615360571416	-0.08245220828089406	0.5104354699773919	0.03516827816497892	-0.07861134640482148	0.5193388739091471	-0.0028454286796221195	-0.059483468474876955	0.5362660656963676	-0.00086142889520191	-0.06107529857073257	0.544228870493495	0.017886443642674776	-0.0661667653600162	0.5113614765247503	0.031558147782860146	-0.060361391073497694	0.46228308100186094	-0.023011742144276925	-0.051989820119430985
23	0.7999999999999965	0.4808442122506306	-0.025393533163532545	-0.17275734332349757	0.4824190494104232	-0.026718845866739338	-0.14987146483568659	0.4808572195934412	-0.02979047630811482	-0.11893692468952621	0.479732971886462	-0.02614427951886389	-0.07449222516227771	0.510711172936466	-0.011945603220630097	-0.09603293346666486	0.5286421458561028	-0.01339477884475948	-0.09812580235067936	0.5428479500531347	0.0003546413711883467	-0.11365507805307062	0.5031435770591427	0.0156799586202665	-0.11518266123217014	0.5084606963739535	-0.011887322444663728	-0.08407253581017382	0.5263079508004513	-0.009579372364409755	-0.0820356568587115	0.545817118130885	0.007127248226409533	-0.09580848403789133	0.5064918733889188	0.02827201701787807	-0.09741216721726487	0.5138724386379483	-0.00048203057034112984	-0.07211804922949105	0.5316088579616545	0.0025501080087921846	-0.07322510171722396	0.5478363146479482	0.019055977641597166	-0.08241236987262834	0.510854816192591	0.034904647169391456	-0.07842372596834435	0.5207132490657294	-0.0033729491201154316	-0.05956656565220009	0.5376204724481144	-0.0011661186677848212	-0.06107510695186602	0.5448849410613387	0.017936241030990452	-0.06588544672220253	0.5118311709086434	0.031168715880227738	-0.06012061029285831	0.46228308100186094	-0.023011742144276925	-0.051989820119430985
